<mxfile host="Electron" modified="2024-04-24T21:51:06.437Z" agent="Mozilla/5.0 (Windows NT 10.0; Win64; x64) AppleWebKit/537.36 (KHTML, like Gecko) draw.io/23.1.5 Chrome/120.0.6099.109 Electron/28.1.0 Safari/537.36" etag="kmyPG06CIpKoxC0YfWoN" version="23.1.5" type="device">
  <diagram name="Page-1" id="mYBT9-BmHDDLyepZfZzU">
    <mxGraphModel dx="1050" dy="629" grid="0" gridSize="10" guides="1" tooltips="1" connect="1" arrows="1" fold="1" page="1" pageScale="1" pageWidth="827" pageHeight="1169" math="0" shadow="0">
      <root>
        <mxCell id="0" />
        <mxCell id="1" parent="0" />
        <mxCell id="tAmDztP8PdxtzTMDF7Ye-28" style="edgeStyle=orthogonalEdgeStyle;rounded=0;orthogonalLoop=1;jettySize=auto;html=1;exitX=0.5;exitY=1;exitDx=0;exitDy=0;entryX=0.5;entryY=0;entryDx=0;entryDy=0;strokeWidth=2;" edge="1" parent="1" source="tAmDztP8PdxtzTMDF7Ye-4" target="tAmDztP8PdxtzTMDF7Ye-15">
          <mxGeometry relative="1" as="geometry" />
        </mxCell>
        <mxCell id="tAmDztP8PdxtzTMDF7Ye-4" value="&lt;b&gt;&lt;font style=&quot;font-size: 15px;&quot;&gt;Validate customer information&lt;/font&gt;&lt;/b&gt;" style="rounded=1;whiteSpace=wrap;html=1;arcSize=40;fontColor=#000000;fillColor=#ffffc0;strokeColor=#ff0000;" vertex="1" parent="1">
          <mxGeometry x="354" y="95" width="144" height="56" as="geometry" />
        </mxCell>
        <mxCell id="tAmDztP8PdxtzTMDF7Ye-30" style="edgeStyle=orthogonalEdgeStyle;rounded=0;orthogonalLoop=1;jettySize=auto;html=1;exitX=0.5;exitY=1;exitDx=0;exitDy=0;entryX=0.5;entryY=0;entryDx=0;entryDy=0;strokeWidth=2;" edge="1" parent="1" source="tAmDztP8PdxtzTMDF7Ye-8" target="tAmDztP8PdxtzTMDF7Ye-29">
          <mxGeometry relative="1" as="geometry" />
        </mxCell>
        <mxCell id="tAmDztP8PdxtzTMDF7Ye-8" value="&lt;b style=&quot;&quot;&gt;&lt;font style=&quot;font-size: 18px;&quot;&gt;Customer Makes order&lt;/font&gt;&lt;/b&gt;" style="rounded=1;whiteSpace=wrap;html=1;arcSize=40;fontColor=#000000;fillColor=#ffffc0;strokeColor=#ff0000;" vertex="1" parent="1">
          <mxGeometry x="189" y="398" width="120" height="70" as="geometry" />
        </mxCell>
        <mxCell id="tAmDztP8PdxtzTMDF7Ye-9" style="edgeStyle=orthogonalEdgeStyle;rounded=0;orthogonalLoop=1;jettySize=auto;html=1;exitX=0.5;exitY=1;exitDx=0;exitDy=0;entryX=0.5;entryY=0;entryDx=0;entryDy=0;strokeWidth=2;" edge="1" parent="1" source="tAmDztP8PdxtzTMDF7Ye-10" target="tAmDztP8PdxtzTMDF7Ye-4">
          <mxGeometry relative="1" as="geometry">
            <Array as="points">
              <mxPoint x="426" y="30" />
            </Array>
          </mxGeometry>
        </mxCell>
        <mxCell id="tAmDztP8PdxtzTMDF7Ye-10" value="" style="ellipse;html=1;shape=startState;fillColor=#000000;strokeColor=#ff0000;" vertex="1" parent="1">
          <mxGeometry x="410" width="30" height="30" as="geometry" />
        </mxCell>
        <mxCell id="tAmDztP8PdxtzTMDF7Ye-11" value="" style="ellipse;html=1;shape=endState;fillColor=#000000;strokeColor=#ff0000;" vertex="1" parent="1">
          <mxGeometry x="488.25" y="1082" width="30" height="30" as="geometry" />
        </mxCell>
        <mxCell id="tAmDztP8PdxtzTMDF7Ye-12" style="edgeStyle=orthogonalEdgeStyle;rounded=0;orthogonalLoop=1;jettySize=auto;html=1;exitX=0;exitY=0.5;exitDx=0;exitDy=0;strokeWidth=2;" edge="1" parent="1" source="tAmDztP8PdxtzTMDF7Ye-15" target="tAmDztP8PdxtzTMDF7Ye-8">
          <mxGeometry relative="1" as="geometry" />
        </mxCell>
        <mxCell id="tAmDztP8PdxtzTMDF7Ye-45" style="edgeStyle=orthogonalEdgeStyle;rounded=0;orthogonalLoop=1;jettySize=auto;html=1;exitX=1;exitY=0.5;exitDx=0;exitDy=0;strokeWidth=2;" edge="1" parent="1" source="tAmDztP8PdxtzTMDF7Ye-15">
          <mxGeometry relative="1" as="geometry">
            <mxPoint x="426" y="51" as="targetPoint" />
            <Array as="points">
              <mxPoint x="579" y="362" />
              <mxPoint x="579" y="51" />
            </Array>
          </mxGeometry>
        </mxCell>
        <mxCell id="tAmDztP8PdxtzTMDF7Ye-46" value="&lt;font size=&quot;1&quot; style=&quot;&quot;&gt;&lt;b style=&quot;font-size: 18px;&quot;&gt;Invalid&lt;/b&gt;&lt;/font&gt;" style="edgeLabel;html=1;align=center;verticalAlign=middle;resizable=0;points=[];" vertex="1" connectable="0" parent="tAmDztP8PdxtzTMDF7Ye-45">
          <mxGeometry x="-0.8631" y="2" relative="1" as="geometry">
            <mxPoint x="12" y="-13" as="offset" />
          </mxGeometry>
        </mxCell>
        <mxCell id="tAmDztP8PdxtzTMDF7Ye-15" value="" style="rhombus;whiteSpace=wrap;html=1;fontColor=#000000;fillColor=#ffffc0;strokeColor=#ff0000;" vertex="1" parent="1">
          <mxGeometry x="376" y="332" width="100" height="60" as="geometry" />
        </mxCell>
        <mxCell id="tAmDztP8PdxtzTMDF7Ye-16" value="&lt;font size=&quot;1&quot; style=&quot;&quot;&gt;&lt;b style=&quot;font-size: 19px;&quot;&gt;Valid&lt;/b&gt;&lt;/font&gt;" style="text;html=1;align=center;verticalAlign=middle;resizable=0;points=[];autosize=1;strokeColor=none;fillColor=none;" vertex="1" parent="1">
          <mxGeometry x="277" y="332" width="62" height="35" as="geometry" />
        </mxCell>
        <mxCell id="tAmDztP8PdxtzTMDF7Ye-37" style="edgeStyle=orthogonalEdgeStyle;rounded=0;orthogonalLoop=1;jettySize=auto;html=1;exitX=0.5;exitY=1;exitDx=0;exitDy=0;entryX=0.5;entryY=0;entryDx=0;entryDy=0;strokeWidth=2;" edge="1" parent="1" source="tAmDztP8PdxtzTMDF7Ye-18" target="tAmDztP8PdxtzTMDF7Ye-36">
          <mxGeometry relative="1" as="geometry" />
        </mxCell>
        <mxCell id="tAmDztP8PdxtzTMDF7Ye-18" value="&lt;font style=&quot;font-size: 18px;&quot;&gt;&lt;b&gt;Calculate order subtotal &amp;amp; sales taxes&lt;br&gt;&lt;/b&gt;&lt;/font&gt;" style="rounded=1;whiteSpace=wrap;html=1;arcSize=40;fontColor=#000000;fillColor=#ffffc0;strokeColor=#ff0000;" vertex="1" parent="1">
          <mxGeometry x="183" y="616" width="132" height="91.5" as="geometry" />
        </mxCell>
        <mxCell id="tAmDztP8PdxtzTMDF7Ye-25" style="edgeStyle=orthogonalEdgeStyle;rounded=0;orthogonalLoop=1;jettySize=auto;html=1;exitX=0.5;exitY=1;exitDx=0;exitDy=0;strokeWidth=2;" edge="1" parent="1" source="tAmDztP8PdxtzTMDF7Ye-26" target="tAmDztP8PdxtzTMDF7Ye-11">
          <mxGeometry relative="1" as="geometry" />
        </mxCell>
        <mxCell id="tAmDztP8PdxtzTMDF7Ye-26" value="&lt;font style=&quot;font-size: 16px;&quot;&gt;&lt;b&gt;Generate order&lt;br&gt;&lt;/b&gt;&lt;/font&gt;" style="rounded=1;whiteSpace=wrap;html=1;arcSize=40;fontColor=#000000;fillColor=#ffffc0;strokeColor=#ff0000;" vertex="1" parent="1">
          <mxGeometry x="430" y="907" width="146.5" height="80" as="geometry" />
        </mxCell>
        <mxCell id="tAmDztP8PdxtzTMDF7Ye-31" style="edgeStyle=orthogonalEdgeStyle;rounded=0;orthogonalLoop=1;jettySize=auto;html=1;exitX=1;exitY=0.5;exitDx=0;exitDy=0;entryX=1;entryY=0.5;entryDx=0;entryDy=0;strokeWidth=2;" edge="1" parent="1" source="tAmDztP8PdxtzTMDF7Ye-29" target="tAmDztP8PdxtzTMDF7Ye-18">
          <mxGeometry relative="1" as="geometry" />
        </mxCell>
        <mxCell id="tAmDztP8PdxtzTMDF7Ye-35" value="&lt;b&gt;&lt;font style=&quot;font-size: 16px;&quot;&gt;Available in&lt;br&gt;inventory&lt;br&gt;&lt;/font&gt;&lt;/b&gt;" style="edgeLabel;html=1;align=center;verticalAlign=middle;resizable=0;points=[];" vertex="1" connectable="0" parent="tAmDztP8PdxtzTMDF7Ye-31">
          <mxGeometry x="-0.1602" relative="1" as="geometry">
            <mxPoint x="1" y="5" as="offset" />
          </mxGeometry>
        </mxCell>
        <mxCell id="tAmDztP8PdxtzTMDF7Ye-33" style="edgeStyle=orthogonalEdgeStyle;rounded=0;orthogonalLoop=1;jettySize=auto;html=1;exitX=0;exitY=0.5;exitDx=0;exitDy=0;strokeWidth=2;" edge="1" parent="1" source="tAmDztP8PdxtzTMDF7Ye-29">
          <mxGeometry relative="1" as="geometry">
            <mxPoint x="249" y="378" as="targetPoint" />
            <Array as="points">
              <mxPoint x="142" y="543" />
            </Array>
          </mxGeometry>
        </mxCell>
        <mxCell id="tAmDztP8PdxtzTMDF7Ye-34" value="&lt;span style=&quot;font-size: 16px;&quot;&gt;&lt;b&gt;Not available&lt;/b&gt;&lt;/span&gt;" style="edgeLabel;html=1;align=center;verticalAlign=middle;resizable=0;points=[];" vertex="1" connectable="0" parent="tAmDztP8PdxtzTMDF7Ye-33">
          <mxGeometry x="-0.1587" y="1" relative="1" as="geometry">
            <mxPoint y="28" as="offset" />
          </mxGeometry>
        </mxCell>
        <mxCell id="tAmDztP8PdxtzTMDF7Ye-29" value="" style="rhombus;whiteSpace=wrap;html=1;fontColor=#000000;fillColor=#ffffc0;strokeColor=#ff0000;" vertex="1" parent="1">
          <mxGeometry x="199" y="513" width="100" height="60" as="geometry" />
        </mxCell>
        <mxCell id="tAmDztP8PdxtzTMDF7Ye-38" style="edgeStyle=orthogonalEdgeStyle;rounded=0;orthogonalLoop=1;jettySize=auto;html=1;strokeWidth=2;" edge="1" parent="1" source="tAmDztP8PdxtzTMDF7Ye-36">
          <mxGeometry relative="1" as="geometry">
            <mxPoint x="336" y="641" as="targetPoint" />
            <Array as="points">
              <mxPoint x="384" y="804" />
            </Array>
          </mxGeometry>
        </mxCell>
        <mxCell id="tAmDztP8PdxtzTMDF7Ye-39" value="&lt;b&gt;&lt;font style=&quot;font-size: 16px;&quot;&gt;Not valid&lt;/font&gt;&lt;/b&gt;" style="edgeLabel;html=1;align=center;verticalAlign=middle;resizable=0;points=[];" vertex="1" connectable="0" parent="tAmDztP8PdxtzTMDF7Ye-38">
          <mxGeometry x="0.1203" y="-1" relative="1" as="geometry">
            <mxPoint as="offset" />
          </mxGeometry>
        </mxCell>
        <mxCell id="tAmDztP8PdxtzTMDF7Ye-42" style="edgeStyle=orthogonalEdgeStyle;rounded=0;orthogonalLoop=1;jettySize=auto;html=1;exitX=0.5;exitY=1;exitDx=0;exitDy=0;entryX=0;entryY=0.5;entryDx=0;entryDy=0;strokeWidth=2;" edge="1" parent="1" source="tAmDztP8PdxtzTMDF7Ye-36" target="tAmDztP8PdxtzTMDF7Ye-26">
          <mxGeometry relative="1" as="geometry" />
        </mxCell>
        <mxCell id="tAmDztP8PdxtzTMDF7Ye-43" value="&lt;b&gt;&lt;font style=&quot;font-size: 16px;&quot;&gt;Credit card&lt;br&gt;validation&lt;br&gt;&lt;/font&gt;&lt;/b&gt;" style="edgeLabel;html=1;align=center;verticalAlign=middle;resizable=0;points=[];" vertex="1" connectable="0" parent="tAmDztP8PdxtzTMDF7Ye-42">
          <mxGeometry x="0.0735" y="3" relative="1" as="geometry">
            <mxPoint x="28" y="-19" as="offset" />
          </mxGeometry>
        </mxCell>
        <mxCell id="tAmDztP8PdxtzTMDF7Ye-36" value="" style="rhombus;whiteSpace=wrap;html=1;fontColor=#000000;fillColor=#ffffc0;strokeColor=#ff0000;" vertex="1" parent="1">
          <mxGeometry x="199" y="774" width="100" height="60" as="geometry" />
        </mxCell>
      </root>
    </mxGraphModel>
  </diagram>
</mxfile>
